<svg version="1.1" id="Layer_1" xmlns="http://www.w3.org/2000/svg" xmlns:xlink="http://www.w3.org/1999/xlink" x="0px" y="0px"
	 width="100%" viewBox="0 0 275 183" enable-background="new 0 0 275 183" xml:space="preserve">
<path fill="#015430" opacity="1.000000" stroke="none" 
	d="
M1.000000,183.000000 
	C1.000000,122.374893 1.000000,61.749783 1.000000,1.062338 
	C92.562279,1.062338 184.124619,1.062338 276.000000,1.062338 
	C276.000000,61.353867 276.000000,121.708275 275.531342,182.532806 
	C183.708450,183.001953 92.354225,183.000977 1.000000,183.000000 
M129.007950,59.993179 
	C129.007950,59.993179 129.041840,60.021706 128.643326,60.167576 
	C128.388519,60.304070 128.179718,60.491768 127.256508,61.021564 
	C124.194359,61.962933 122.528664,60.154144 120.943771,57.318134 
	C120.783661,56.957283 120.623558,56.596436 121.110474,55.955280 
	C121.763176,53.985249 122.415878,52.015217 123.739738,50.196190 
	C124.906250,51.982288 126.072762,53.768387 127.314613,55.669827 
	C128.908325,52.558308 127.857376,48.109440 125.385162,47.469090 
	C124.761940,47.307663 123.802238,48.445263 122.426834,49.072342 
	C118.827805,51.968449 119.369095,45.533607 116.312256,46.661819 
	C114.976479,48.620766 113.458977,50.846226 111.910164,53.117596 
	C110.996475,52.327900 110.304977,51.730247 109.156227,50.688770 
	C108.588715,49.634346 108.021210,48.579922 107.453705,47.525494 
	C107.078903,47.604298 106.704102,47.683102 106.329308,47.761902 
	C106.877625,54.181942 107.425949,60.601982 107.965553,66.919968 
	C105.170891,68.056168 102.753204,69.039108 99.762161,70.255150 
	C99.925491,68.199013 99.460556,66.173126 100.265747,65.218224 
	C104.848961,59.782852 105.268005,53.724609 100.876801,48.097862 
	C100.108734,49.052109 99.373329,49.965763 98.579216,50.952362 
	C97.905609,49.789486 97.357399,48.843090 96.809189,47.896694 
	C96.479729,47.922924 96.150276,47.949154 95.820816,47.975384 
	C95.820816,51.486969 95.820816,54.998550 95.820816,58.510132 
	C95.581207,58.515934 95.341606,58.521732 95.101997,58.527534 
	C94.449409,55.125629 93.796814,51.723724 93.144226,48.321819 
	C92.799591,48.360149 92.454948,48.398476 92.110313,48.436806 
	C92.110313,51.753716 92.110313,55.070629 91.876678,59.050900 
	C89.742249,60.091614 87.607811,61.132328 85.473381,62.173042 
	C84.631699,60.153484 83.790009,58.133930 83.024460,55.660244 
	C83.024460,55.660244 83.044556,55.200237 83.488075,54.798847 
	C83.577110,54.386734 83.666138,53.974617 83.755165,53.562500 
	C83.151268,53.756676 82.547379,53.950848 81.382393,53.943344 
	C80.624802,54.958492 79.867218,55.973637 78.848106,57.653332 
	C78.305954,59.485840 77.763802,61.318352 77.221649,63.150864 
	C77.584274,63.274872 77.946899,63.398880 78.309525,63.522888 
	C78.846313,62.653858 79.383102,61.784824 80.267113,61.362244 
	C80.564102,61.593304 80.861099,61.824368 81.630836,62.501667 
	C81.750786,63.346416 81.870735,64.191170 81.278931,65.013351 
	C80.329735,66.016464 79.380539,67.019577 78.409286,67.971748 
	C78.409286,67.971748 78.354454,67.980362 77.820702,67.889542 
	C76.930206,67.752106 76.039703,67.614662 75.284645,66.948219 
	C75.682404,66.294876 76.080162,65.641541 76.477921,64.988197 
	C76.334892,64.942024 76.191872,64.895844 76.048851,64.849670 
	C75.345375,65.842598 74.641907,66.835518 73.381310,68.250504 
	C73.896484,68.849098 74.411652,69.447701 74.908775,70.597450 
	C74.582275,70.912964 74.255768,71.228477 73.929268,71.543991 
	C74.631683,71.709671 75.334106,71.875343 76.003372,72.003975 
	C76.003372,72.003975 75.963326,71.974510 76.076988,72.482262 
	C75.694702,72.815399 75.312408,73.148537 74.362366,73.769661 
	C74.241692,74.532578 74.121010,75.295502 73.261322,76.442703 
	C73.113152,78.592041 72.964981,80.741371 72.201042,83.235657 
	C72.332634,87.462593 75.180168,89.135033 78.731323,89.995384 
	C83.722977,91.204720 87.674225,88.366310 92.265228,87.038902 
	C93.176605,87.396065 94.087982,87.753220 94.978462,88.406158 
	C94.978462,88.406158 94.957565,88.701927 94.346779,88.932800 
	C91.956642,91.237068 93.780434,92.174446 95.727310,92.034706 
	C97.584373,91.901421 99.367111,90.732735 101.597771,90.020988 
	C101.597771,90.020988 102.012268,89.996109 102.830978,90.001175 
	C106.494934,89.164474 110.158897,88.327774 113.982590,87.454590 
	C114.775200,88.755127 115.674057,90.229996 117.023369,92.443962 
	C122.153641,89.494080 127.071236,86.666489 132.710098,83.893990 
	C136.997787,86.768578 141.285461,89.643173 145.573151,92.517761 
	C146.115326,91.800316 146.657501,91.082878 147.199677,90.365433 
	C145.180420,88.595818 143.161148,86.826202 141.809921,84.777023 
	C146.902740,82.587410 151.995575,80.397797 157.895950,78.066887 
	C158.377686,80.379692 158.859421,82.692490 159.305222,85.768547 
	C158.427048,86.786896 157.548874,87.805237 156.025757,89.571472 
	C158.662415,88.861870 160.473846,88.273224 162.331177,87.941795 
	C162.829041,87.852951 163.466873,88.548416 164.135468,89.592316 
	C167.500565,93.887253 169.785873,93.935883 172.145752,89.546738 
	C173.057877,87.850250 173.403397,85.849098 174.490555,83.423096 
	C175.205154,82.886269 175.919739,82.349434 176.831299,81.664642 
	C177.072647,83.353592 177.251190,84.603058 177.498749,86.335426 
	C177.877899,84.797119 178.123306,83.801453 178.715302,81.399590 
	C181.042023,88.753235 185.289627,85.332367 188.985901,85.704498 
	C189.666718,86.808556 190.347519,87.912613 191.383881,88.943932 
	C191.383881,88.943932 191.746597,88.932335 191.802521,89.575203 
	C192.202606,90.047447 192.602692,90.519691 193.694260,90.994598 
	C194.156326,90.993492 194.618408,90.992393 195.626694,90.862030 
	C196.915787,90.131828 198.204880,89.401619 199.574005,88.626076 
	C199.005829,87.673279 198.439224,86.723114 197.624405,85.314445 
	C197.368134,84.874649 197.111862,84.434853 197.039047,83.334145 
	C197.116638,82.886475 197.194229,82.438812 197.719818,81.484253 
	C197.631531,79.942001 197.543259,78.399742 197.239868,76.225708 
	C197.237396,75.561722 197.234924,74.897743 198.333420,74.015862 
	C198.701309,73.947891 199.069183,73.879921 199.898178,74.119659 
	C200.267197,74.739914 200.636215,75.360168 201.079376,76.582100 
	C201.455231,77.028671 201.831085,77.475250 202.701447,78.247581 
	C202.802383,78.825684 202.903305,79.403778 202.963730,80.706902 
	C202.187454,83.008217 201.411194,85.309540 200.634918,87.610855 
	C201.365692,87.907028 202.096466,88.203194 202.827240,88.499359 
	C204.203796,85.647720 205.580353,82.796082 207.003922,79.984123 
	C207.003922,79.984123 206.943192,79.974800 207.423767,79.459229 
	C207.385880,76.975822 207.348007,74.492424 207.109146,71.356949 
	C207.126022,70.905113 207.142883,70.453278 207.383286,69.778267 
	C207.519241,69.452484 207.440674,69.180817 206.990463,68.354088 
	C206.313416,63.490524 205.636368,58.626965 205.201920,53.370060 
	C205.493347,52.921616 205.784775,52.473171 205.986221,51.352669 
	C204.993637,50.229198 204.001053,49.105728 202.539886,47.476738 
	C199.629379,45.272850 197.134216,45.690140 194.271774,48.198936 
	C194.150574,50.390316 194.029358,52.581699 193.751709,55.052258 
	C193.722610,55.389961 193.814148,55.682037 193.946915,56.624146 
	C194.010605,57.084576 194.074280,57.545010 194.023117,58.802265 
	C193.890259,59.910316 193.757416,61.018368 193.534134,62.880642 
	C189.877884,59.430908 186.335434,57.097557 188.863266,52.077374 
	C189.197449,51.413670 188.143738,50.051113 187.716675,48.564014 
	C187.200851,48.711838 186.685043,48.859661 185.983093,49.710060 
	C186.004868,50.194023 186.026627,50.677990 185.349136,51.448727 
	C183.537247,50.259514 181.725342,49.070305 179.913452,47.881092 
	C179.585495,48.253071 179.257538,48.625053 178.929565,48.997032 
	C180.593552,51.050255 182.257538,53.103481 184.158264,55.834591 
	C185.467972,59.888474 186.777679,63.942352 187.976028,68.742935 
	C188.053940,69.488670 188.131866,70.234406 188.129150,71.801422 
	C188.320099,72.594452 188.511032,73.387482 188.539032,74.722473 
	C188.703415,75.450546 188.867783,76.178619 188.959579,77.704201 
	C187.828568,79.415459 187.018982,81.989334 185.465942,82.568016 
	C184.198486,83.040291 181.988892,81.223022 180.291916,80.254616 
	C176.594421,78.144585 178.260712,74.569664 178.075882,71.530525 
	C177.596100,63.642017 177.182495,55.749481 176.742477,47.858555 
	C176.040314,47.903141 175.338135,47.947727 174.635956,47.992313 
	C174.709137,49.661037 174.782318,51.329762 174.461136,53.464531 
	C172.447403,55.377270 170.433670,57.290009 168.156387,58.517879 
	C168.119934,56.337528 168.460175,54.058128 167.921616,52.009808 
	C167.527832,50.512215 165.978195,49.318539 164.290573,47.832531 
	C161.753525,44.829239 159.362457,47.419846 156.103302,48.014965 
	C155.869507,49.488651 155.425507,50.965645 155.448624,52.435287 
	C155.488525,54.970970 155.818787,57.502090 156.157822,61.622540 
	C153.408707,59.666756 151.727509,58.789364 150.463715,57.502163 
	C148.169266,55.165218 146.123169,52.584454 143.580734,49.578663 
	C142.608139,49.092350 141.635529,48.606037 140.218964,47.900963 
	C139.649979,47.999577 139.081009,48.098186 137.721741,48.334682 
	C136.135025,48.554710 134.548294,48.774738 132.750046,48.852882 
	C132.750046,48.852882 132.846634,48.617195 132.680222,48.001717 
	C132.406677,47.684891 132.133118,47.368069 131.195969,47.308693 
	C131.105820,51.139805 131.015671,54.970913 130.423965,58.762524 
	C130.274857,58.839233 130.125732,58.915947 129.581299,59.265766 
	C129.334290,59.479229 129.146484,59.735996 129.007950,59.993179 
M171.824234,127.441711 
	C169.627838,127.960953 167.433441,128.921616 165.234726,128.931641 
	C141.413391,129.040253 117.591324,128.978149 93.769653,129.039963 
	C91.844353,129.044952 89.920525,129.620850 87.497871,130.323441 
	C89.186317,134.090683 92.646965,133.309433 95.640144,133.316864 
	C120.225677,133.377945 144.811432,133.351334 169.378891,133.351334 
	C169.869400,134.627472 170.335632,135.840469 170.988495,137.539017 
	C175.404907,133.071609 179.851456,132.774277 184.831680,135.511124 
	C186.046768,136.178864 187.972443,135.729843 189.513168,135.460831 
	C189.779907,135.414276 190.197952,133.283295 189.776718,132.829834 
	C188.733490,131.706787 187.309738,130.383820 185.922821,130.236908 
	C181.717880,129.791504 177.106186,131.165466 173.988968,126.841438 
	C173.862732,126.666321 173.057816,126.980476 171.824234,127.441711 
M148.212158,49.284096 
	C149.004532,49.498596 149.796906,49.713093 150.589279,49.927593 
	C150.594131,49.480270 150.598984,49.032951 150.603836,48.585629 
	C149.830750,48.910210 149.057678,49.234787 148.212158,49.284096 
M75.812309,53.691856 
	C75.553192,53.780617 75.294083,53.869381 75.034966,53.958145 
	C75.302757,54.055275 75.570541,54.152405 75.812309,53.691856 
z"/>
<path fill="#44745B" opacity="1.000000" stroke="none" 
	d="
M1.000000,183.500000 
	C92.354225,183.000977 183.708450,183.001953 275.531342,183.001480 
	C274.503326,183.333344 273.006775,183.957657 271.509918,183.958420 
	C181.339966,184.004837 91.169983,184.000000 1.000000,183.500000 
z"/>
<path fill="#EBEFED" opacity="1.000000" stroke="none" 
	d="
M172.569107,127.066666 
	C173.057816,126.980476 173.862732,126.666321 173.988968,126.841438 
	C177.106186,131.165466 181.717880,129.791504 185.922821,130.236908 
	C187.309738,130.383820 188.733490,131.706787 189.776718,132.829834 
	C190.197952,133.283295 189.779907,135.414276 189.513168,135.460831 
	C187.972443,135.729843 186.046768,136.178864 184.831680,135.511124 
	C179.851456,132.774277 175.404907,133.071609 170.988495,137.539017 
	C170.335632,135.840469 169.869400,134.627472 169.378891,133.351334 
	C144.811432,133.351334 120.225677,133.377945 95.640144,133.316864 
	C92.646965,133.309433 89.186317,134.090683 88.212204,130.197083 
	C115.376251,130.080170 141.826004,130.069855 168.275604,130.133377 
	C170.607803,130.138977 172.637100,130.200027 172.569107,127.066666 
z"/>
<path fill="#E9EEEB" opacity="1.000000" stroke="none" 
	d="
M92.110321,58.387539 
	C92.110313,55.070629 92.110313,51.753716 92.110313,48.436806 
	C92.454948,48.398476 92.799591,48.360149 93.144226,48.321819 
	C93.796814,51.723724 94.449409,55.125629 95.101997,58.527534 
	C95.341606,58.521732 95.581207,58.515934 95.820816,58.510132 
	C95.820816,54.998550 95.820816,51.486969 95.820816,47.975384 
	C96.150276,47.949154 96.479729,47.922924 96.809189,47.896694 
	C97.357399,48.843090 97.905609,49.789486 98.579216,50.952362 
	C99.373329,49.965763 100.108734,49.052109 100.876801,48.097862 
	C105.268005,53.724609 104.848961,59.782852 100.265747,65.218224 
	C99.460556,66.173126 99.925491,68.199013 99.762161,70.255150 
	C102.753204,69.039108 105.170891,68.056168 107.965553,66.919968 
	C107.425949,60.601982 106.877625,54.181942 106.329308,47.761902 
	C106.704102,47.683102 107.078903,47.604298 107.453705,47.525494 
	C108.021210,48.579922 108.588715,49.634346 109.495621,51.320786 
	C109.835014,58.088268 109.835014,64.223732 109.835014,70.359200 
	C110.558311,70.611076 111.281616,70.862946 112.004913,71.114822 
	C112.845581,69.819229 113.686256,68.523628 114.257294,67.643570 
	C115.547127,68.603470 116.718063,69.474876 118.426056,70.745956 
	C118.591751,69.267090 118.608475,68.653732 118.739410,68.065804 
	C118.905487,67.320068 119.164291,66.594978 119.551018,65.297722 
	C120.850258,71.482918 119.892570,72.889771 114.917786,72.412369 
	C111.642662,71.025261 111.191368,73.198761 111.029144,75.289902 
	C110.839836,77.730141 110.984940,80.196312 110.984940,82.651222 
	C110.524696,82.691086 110.064445,82.730957 109.604202,82.770821 
	C109.424095,80.850792 109.725014,78.698624 108.939461,77.070763 
	C108.003204,75.130623 106.310852,73.415001 104.583076,72.067551 
	C103.909615,71.542336 101.299622,72.062500 101.199890,72.488075 
	C100.766571,74.337143 100.933617,76.326897 100.715820,78.507889 
	C100.371727,78.833755 100.194313,78.917267 99.720383,78.998421 
	C99.028549,78.997940 98.633224,78.999809 98.283905,78.620384 
	C98.380600,77.474838 98.431274,76.710594 98.613930,75.662125 
	C98.105553,74.777039 97.481682,73.686241 96.821861,73.664032 
	C94.526917,73.586807 92.219521,73.880020 89.576874,73.948532 
	C89.563332,72.030792 89.889755,70.196877 90.216179,68.362961 
	C92.690369,68.930809 95.164566,69.498665 97.811813,70.106239 
	C98.099899,66.128853 95.469826,63.318012 92.022125,60.659538 
	C92.068916,59.686256 92.089615,59.036896 92.110321,58.387539 
M98.063286,54.960575 
	C98.417526,57.237267 98.771767,59.513958 99.158142,61.997231 
	C99.962654,61.790119 100.600250,61.709606 101.162292,61.459377 
	C101.813995,61.169220 102.399323,60.729992 102.925056,60.409389 
	C100.789070,54.366867 100.789070,54.366867 98.063286,54.960575 
z"/>
<path fill="#115832" opacity="1.000000" stroke="none" 
	d="
M115.124512,72.656517 
	C119.892570,72.889771 120.850258,71.482918 119.551018,65.297722 
	C119.164291,66.594978 118.905487,67.320068 118.739410,68.065804 
	C118.608475,68.653732 118.591751,69.267090 118.426056,70.745956 
	C116.718063,69.474876 115.547127,68.603470 114.257294,67.643570 
	C113.686256,68.523628 112.845581,69.819229 112.004913,71.114822 
	C111.281616,70.862946 110.558311,70.611076 109.835014,70.359200 
	C109.835014,64.223732 109.835014,58.088268 109.724251,51.542702 
	C110.304977,51.730247 110.996475,52.327900 111.910164,53.117596 
	C113.458977,50.846226 114.976479,48.620766 116.312256,46.661819 
	C119.369095,45.533607 118.827805,51.968449 122.725983,49.294289 
	C123.039619,49.692554 123.054100,49.868870 123.068588,50.045189 
	C122.415878,52.015217 121.763176,53.985249 120.525421,56.016857 
	C119.593346,56.391052 119.246315,56.703671 118.608246,56.926849 
	C117.930634,55.165916 117.544075,53.494419 117.111122,51.622353 
	C111.650665,56.174629 111.279060,57.979389 114.428734,60.886353 
	C116.222878,59.820389 117.858513,58.848595 119.690796,57.931015 
	C119.887428,57.985226 120.293510,58.024292 120.282623,58.382305 
	C121.168472,60.498798 122.065216,62.257278 123.149979,64.423737 
	C123.893539,67.871742 124.418526,70.917816 125.018410,73.949074 
	C125.290642,75.324684 125.711342,76.670906 125.736893,78.156265 
	C122.006783,79.654106 118.604485,81.026146 115.034355,82.018044 
	C114.952522,78.644104 115.038521,75.650314 115.124512,72.656517 
M111.405807,61.966557 
	C111.682617,62.086998 111.959419,62.207436 112.236229,62.327877 
	C112.040504,62.132229 111.844780,61.936577 111.405807,61.966557 
z"/>
<path fill="#0D542D" opacity="1.000000" stroke="none" 
	d="
M140.662933,48.119720 
	C141.635529,48.606037 142.608139,49.092350 143.423080,49.926498 
	C143.574326,51.418510 143.545639,52.862411 144.249863,53.655586 
	C147.500931,57.317329 151.059647,60.706043 154.307785,64.370193 
	C157.351776,67.804024 159.271713,71.652573 156.564728,76.301399 
	C150.827316,76.560875 145.503662,76.872627 140.180023,77.184387 
	C140.113617,76.777710 140.047211,76.371025 139.980804,75.964348 
	C143.417694,74.661583 146.930283,73.519859 150.246826,71.961037 
	C151.284576,71.473289 152.596130,69.071144 152.417343,68.889587 
	C151.066727,67.518158 149.481552,66.234207 147.729156,65.486557 
	C147.180130,65.252327 145.016449,66.852745 145.087723,67.428139 
	C145.584595,71.440323 142.451309,72.059921 140.054214,73.598312 
	C138.193192,74.792671 136.674744,76.520836 134.722565,78.159607 
	C134.250031,78.215736 134.058960,78.123978 133.856262,77.666351 
	C132.525894,74.010757 132.952789,71.598427 137.303650,71.048965 
	C138.444778,70.763863 139.289108,70.439026 140.245926,69.994720 
	C140.082077,69.710365 139.805725,69.545494 139.280594,69.495422 
	C138.902817,68.898514 138.773804,68.186798 138.817200,67.146591 
	C139.326111,65.897636 139.662643,64.977165 140.233215,63.849365 
	C140.992416,62.792267 141.517578,61.942501 142.313568,60.817585 
	C141.943893,56.401527 141.303421,52.260624 140.662933,48.119720 
z"/>
<path fill="#0A5632" opacity="1.000000" stroke="none" 
	d="
M114.917786,72.412369 
	C115.038521,75.650314 114.952522,78.644104 114.986862,82.386703 
	C111.671432,84.440910 108.175186,85.612755 104.833313,87.125595 
	C103.693405,87.641617 102.941475,89.014656 102.012268,89.996109 
	C102.012268,89.996109 101.597771,90.020988 101.061119,89.988274 
	C98.668831,89.537682 96.813202,89.119804 94.957565,88.701927 
	C94.957565,88.701927 94.978462,88.406158 95.000320,87.824203 
	C94.965454,86.381882 94.908737,85.521515 95.001343,84.428101 
	C95.745773,83.787186 96.340889,83.379326 97.304932,83.005142 
	C99.101891,83.623459 100.529930,84.208084 101.957977,84.792709 
	C102.363297,84.578781 102.768616,84.364861 103.173935,84.150940 
	C102.410118,82.189133 101.646294,80.227325 100.882477,78.265526 
	C100.933617,76.326897 100.766571,74.337143 101.199890,72.488075 
	C101.299622,72.062500 103.909615,71.542336 104.583076,72.067551 
	C106.310852,73.415001 108.003204,75.130623 108.939461,77.070763 
	C109.725014,78.698624 109.424095,80.850792 109.604202,82.770821 
	C110.064445,82.730957 110.524696,82.691086 110.984940,82.651222 
	C110.984940,80.196312 110.839836,77.730141 111.029144,75.289902 
	C111.191368,73.198761 111.642662,71.025261 114.917786,72.412369 
M103.887650,74.958542 
	C103.478165,76.045624 103.068672,77.132706 102.659187,78.219788 
	C103.044594,78.335983 103.430000,78.452179 103.815399,78.568375 
	C104.020973,77.335663 104.226540,76.102951 103.887650,74.958542 
z"/>
<path fill="#DFE7E3" opacity="1.000000" stroke="none" 
	d="
M156.978500,76.353683 
	C159.271713,71.652573 157.351776,67.804024 154.307785,64.370193 
	C151.059647,60.706043 147.500931,57.317329 144.249863,53.655586 
	C143.545639,52.862411 143.574326,51.418510 143.619415,50.189896 
	C146.123169,52.584454 148.169266,55.165218 150.463715,57.502163 
	C151.727509,58.789364 153.408707,59.666756 156.157822,61.622540 
	C155.818787,57.502090 155.488525,54.970970 155.448624,52.435287 
	C155.425507,50.965645 155.869507,49.488651 156.557510,48.381866 
	C157.668365,51.282970 159.128159,53.917931 158.825333,56.331760 
	C158.036179,62.622261 161.294693,69.687004 166.984955,72.729843 
	C166.912170,74.614174 166.841370,76.063286 166.496887,77.294586 
	C164.331741,74.739296 162.440292,72.401817 160.561661,70.080177 
	C160.256149,75.359093 159.977020,80.181877 159.608734,85.013481 
	C159.519562,85.022308 159.341156,85.005295 159.341156,85.005295 
	C158.859421,82.692490 158.377686,80.379692 157.452942,77.829865 
	C156.999466,77.179794 156.988983,76.766739 156.978500,76.353683 
z"/>
<path fill="#EFF2F0" opacity="1.000000" stroke="none" 
	d="
M156.564728,76.301399 
	C156.988983,76.766739 156.999466,77.179794 157.049164,77.900513 
	C151.995575,80.397797 146.902740,82.587410 141.196350,84.896034 
	C140.395905,85.011909 140.209045,85.008781 140.076172,84.644241 
	C141.565277,82.912361 143.000397,81.541878 144.835861,79.789093 
	C141.202423,79.789093 138.082336,79.789093 134.992081,79.493591 
	C135.015945,78.802628 135.009979,78.407173 135.004028,78.011719 
	C136.674744,76.520836 138.193192,74.792671 140.054214,73.598312 
	C142.451309,72.059921 145.584595,71.440323 145.087723,67.428139 
	C145.016449,66.852745 147.180130,65.252327 147.729156,65.486557 
	C149.481552,66.234207 151.066727,67.518158 152.417343,68.889587 
	C152.596130,69.071144 151.284576,71.473289 150.246826,71.961037 
	C146.930283,73.519859 143.417694,74.661583 139.980804,75.964348 
	C140.047211,76.371025 140.113617,76.777710 140.180023,77.184387 
	C145.503662,76.872627 150.827316,76.560875 156.564728,76.301399 
z"/>
<path fill="#0A542E" opacity="1.000000" stroke="none" 
	d="
M166.986923,72.294624 
	C161.294693,69.687004 158.036179,62.622261 158.825333,56.331760 
	C159.128159,53.917931 157.668365,51.282970 156.965637,48.386826 
	C159.362457,47.419846 161.753525,44.829239 164.521667,48.269791 
	C165.080078,51.307446 165.484344,53.900932 165.718475,56.509686 
	C166.190277,61.766933 166.569504,67.032494 166.986923,72.294624 
z"/>
<path fill="#F2F5F3" opacity="1.000000" stroke="none" 
	d="
M174.855484,52.998486 
	C174.782318,51.329762 174.709137,49.661037 174.635956,47.992313 
	C175.338135,47.947727 176.040314,47.903141 176.742477,47.858555 
	C177.182495,55.749481 177.596100,63.642017 178.075882,71.530525 
	C178.260712,74.569664 176.594421,78.144585 180.291916,80.254616 
	C181.988892,81.223022 184.198486,83.040291 185.465942,82.568016 
	C187.018982,81.989334 187.828568,79.415459 189.009521,77.026428 
	C188.940308,75.625946 188.821136,74.903229 188.701965,74.180511 
	C188.511032,73.387482 188.320099,72.594452 188.383759,71.283966 
	C189.043716,70.516533 189.449081,70.266563 189.948608,70.472687 
	C190.291031,75.107620 190.539307,79.286446 190.619156,83.652336 
	C190.501266,84.180183 190.646210,84.474342 190.666138,84.786201 
	C190.446716,84.850533 190.016754,85.006287 189.730591,85.015594 
	C189.253754,85.033386 189.063080,85.041870 188.872406,85.050354 
	C185.289627,85.332367 181.042023,88.753235 178.715302,81.399590 
	C178.123306,83.801453 177.877899,84.797119 177.498749,86.335426 
	C177.251190,84.603058 177.072647,83.353592 176.831299,81.664642 
	C175.919739,82.349434 175.205154,82.886269 173.960876,83.576248 
	C174.287216,82.156471 175.143265,80.583549 176.341965,78.904831 
	C176.746216,77.872231 176.807816,76.945427 176.929871,75.626312 
	C176.653183,73.491341 176.316040,71.748688 175.983856,69.549942 
	C175.611038,63.728729 175.233261,58.363605 174.855484,52.998486 
z"/>
<path fill="#0D542D" opacity="1.000000" stroke="none" 
	d="
M195.044250,48.664494 
	C197.134216,45.690140 199.629379,45.272850 202.736969,48.076546 
	C202.808929,49.123154 202.683807,49.569958 202.238678,50.099777 
	C200.711517,51.051910 198.969864,51.674129 198.426727,52.849972 
	C197.675751,54.475773 197.016159,57.612789 197.756470,58.161640 
	C199.452072,59.418755 200.677719,62.709431 203.921112,61.315350 
	C204.418686,66.593880 204.836594,71.552628 205.342163,77.551384 
	C202.360092,74.000038 200.206863,71.435768 197.914276,68.519394 
	C197.071960,64.782967 196.368988,61.398651 195.710144,57.644966 
	C195.517609,54.405228 195.280930,51.534863 195.044250,48.664494 
z"/>
<path fill="#0D5732" opacity="1.000000" stroke="none" 
	d="
M175.978897,70.006035 
	C176.316040,71.748688 176.653183,73.491341 176.716248,75.867332 
	C176.294571,77.337318 176.146927,78.173973 175.999298,79.010620 
	C175.143265,80.583549 174.287216,82.156471 173.719116,83.858070 
	C173.403397,85.849098 173.057877,87.850250 172.145752,89.546738 
	C169.785873,93.935883 167.500565,93.887253 164.438110,89.177170 
	C165.813477,86.545288 166.886169,84.328552 167.969360,81.868378 
	C167.979828,81.624939 168.003555,81.138176 168.328156,80.948715 
	C169.169968,78.829414 169.687195,76.899590 170.373230,74.842834 
	C170.750000,74.519806 170.911179,74.290764 171.335434,74.031151 
	C172.058472,74.048706 172.471649,74.063896 172.826508,74.291039 
	C172.772232,74.811226 172.776260,75.119469 172.780273,75.427704 
	C173.040466,75.362366 173.300659,75.297028 173.560852,75.231689 
	C173.397369,74.806030 173.233871,74.380379 173.018661,73.670700 
	C172.653168,72.918419 172.339386,72.450172 172.105209,71.657013 
	C173.123810,70.889343 174.062820,70.446587 175.246094,70.006424 
	C175.490341,70.009010 175.978897,70.006035 175.978897,70.006035 
z"/>
<path fill="#125A37" opacity="1.000000" stroke="none" 
	d="
M190.787567,83.465279 
	C190.539307,79.286446 190.291031,75.107620 190.005737,70.133842 
	C189.896683,68.889183 189.824631,68.439476 189.791992,67.616241 
	C189.552536,66.269119 189.273651,65.295525 188.994766,64.321922 
	C189.442184,64.017181 189.889603,63.712448 190.337006,63.407711 
	C191.832581,65.350777 193.224228,67.388428 194.869003,69.195717 
	C195.653564,70.057808 196.919128,70.482124 198.045990,71.405991 
	C198.562454,72.408806 198.999771,73.110374 199.437073,73.811951 
	C199.069183,73.879921 198.701309,73.947891 197.665649,73.674698 
	C196.396072,73.455132 195.263763,73.609001 195.268921,73.693657 
	C195.478134,77.131676 195.789932,80.563454 196.030792,84.316422 
	C196.606155,85.015526 197.239395,85.394241 197.872620,85.772957 
	C198.439224,86.723114 199.005829,87.673279 199.574005,88.626076 
	C198.204880,89.401619 196.915787,90.131828 195.312805,90.568939 
	C194.664856,89.180939 194.330795,88.086021 194.008057,86.689903 
	C193.674561,86.202431 193.329758,86.016159 192.987335,85.572548 
	C192.975754,85.144211 192.961807,84.973206 192.921967,84.439911 
	C192.193222,83.873497 191.490402,83.669388 190.787567,83.465279 
z"/>
<path fill="#ECF1EF" opacity="1.000000" stroke="none" 
	d="
M102.421631,89.998642 
	C102.941475,89.014656 103.693405,87.641617 104.833313,87.125595 
	C108.175186,85.612755 111.671432,84.440910 115.154694,82.766846 
	C118.604485,81.026146 122.006783,79.654106 125.932724,78.295532 
	C126.687958,78.534622 126.879951,78.790016 126.929916,79.401596 
	C123.225876,82.057861 119.624268,84.387726 114.927338,87.426132 
	C122.711647,88.753113 126.615746,84.122139 131.349426,81.261337 
	C131.699432,82.269066 131.844131,83.053978 131.988831,83.838890 
	C127.071236,86.666489 122.153641,89.494080 117.023369,92.443962 
	C115.674057,90.229996 114.775200,88.755127 113.982590,87.454590 
	C110.158897,88.327774 106.494934,89.164474 102.421631,89.998642 
z"/>
<path fill="#F2F5F3" opacity="1.000000" stroke="none" 
	d="
M197.966827,71.104736 
	C196.919128,70.482124 195.653564,70.057808 194.869003,69.195717 
	C193.224228,67.388428 191.832581,65.350777 190.337006,63.407711 
	C189.889603,63.712448 189.442184,64.017181 188.994766,64.321922 
	C189.273651,65.295525 189.552536,66.269119 189.514465,67.618912 
	C188.827469,67.995476 188.457428,67.995850 188.087402,67.996231 
	C186.777679,63.942352 185.467972,59.888474 184.241364,55.223984 
	C184.899094,53.462906 185.473740,52.312428 186.048401,51.161949 
	C186.026627,50.677990 186.004868,50.194023 186.336761,49.361393 
	C187.037872,49.012558 187.385345,49.012390 187.732803,49.012226 
	C188.143738,50.051113 189.197449,51.413670 188.863266,52.077374 
	C186.335434,57.097557 189.877884,59.430908 193.534134,62.880642 
	C193.757416,61.018368 193.890259,59.910316 194.335236,58.405048 
	C194.986908,58.010002 195.326462,58.012169 195.666016,58.014336 
	C196.368988,61.398651 197.071960,64.782967 197.899017,68.891541 
	C198.004349,70.112114 197.985596,70.608429 197.966827,71.104736 
z"/>
<path fill="#EBEFED" opacity="1.000000" stroke="none" 
	d="
M198.045990,71.405991 
	C197.985596,70.608429 198.004349,70.112114 198.038361,69.243652 
	C200.206863,71.435768 202.360092,74.000038 205.342163,77.551384 
	C204.836594,71.552628 204.418686,66.593880 203.976196,61.034748 
	C203.982056,60.246075 204.012482,60.057781 204.032288,59.620804 
	C204.021683,59.372124 203.952103,58.879192 203.825562,58.558838 
	C203.318924,55.497910 202.938797,52.757336 202.558685,50.016758 
	C202.683807,49.569958 202.808929,49.123154 202.971252,48.329308 
	C204.001053,49.105728 204.993637,50.229198 205.717361,52.101166 
	C205.285446,53.154240 205.122375,53.458820 204.959320,53.763401 
	C205.636368,58.626965 206.313416,63.490524 207.010239,68.918945 
	C207.073257,69.656342 207.116501,69.828888 207.159760,70.001442 
	C207.142883,70.453278 207.126022,70.905113 207.167221,72.124390 
	C207.131256,75.252815 207.037231,77.613808 206.943207,79.974800 
	C206.943192,79.974800 207.003922,79.984123 206.592529,80.065628 
	C205.122162,80.092056 204.063202,80.036972 203.004242,79.981888 
	C202.903305,79.403778 202.802383,78.825684 202.398102,77.791275 
	C201.731598,76.883446 201.368423,76.431931 201.005234,75.980415 
	C200.636215,75.360168 200.267197,74.739914 199.667633,73.965805 
	C198.999771,73.110374 198.562454,72.408806 198.045990,71.405991 
z"/>
<path fill="#E5EBE8" opacity="1.000000" stroke="none" 
	d="
M96.936005,82.971466 
	C96.340889,83.379326 95.745773,83.787186 94.719467,84.517975 
	C93.472931,85.368973 92.657578,85.897049 91.842232,86.425125 
	C87.674225,88.366310 83.722977,91.204720 78.731323,89.995384 
	C75.180168,89.135033 72.332634,87.462593 72.775406,83.096062 
	C73.527206,82.980118 73.704643,83.003761 74.029800,83.360863 
	C76.992828,87.541870 81.073547,88.081612 84.900208,86.474884 
	C89.568970,84.514603 93.811195,81.538467 98.237892,79.001678 
	C98.633224,78.999809 99.028549,78.997940 99.717041,79.344910 
	C98.985474,80.786316 97.960739,81.878891 96.936005,82.971466 
z"/>
<path fill="#004719" opacity="1.000000" stroke="none" 
	d="
M172.196671,127.254196 
	C172.637100,130.200027 170.607803,130.138977 168.275604,130.133377 
	C141.826004,130.069855 115.376251,130.080170 88.461273,130.001083 
	C89.920525,129.620850 91.844353,129.044952 93.769653,129.039963 
	C117.591324,128.978149 141.413391,129.040253 165.234726,128.931641 
	C167.433441,128.921616 169.627838,127.960953 172.196671,127.254196 
z"/>
<path fill="#D6DFDA" opacity="1.000000" stroke="none" 
	d="
M170.204437,74.969765 
	C169.687195,76.899590 169.169968,78.829414 168.055954,80.754868 
	C167.229645,79.671120 167.000107,78.591759 166.770569,77.512405 
	C166.841370,76.063286 166.912170,74.614174 166.984955,72.729843 
	C166.569504,67.032494 166.190277,61.766933 165.718475,56.509686 
	C165.484344,53.900932 165.080078,51.307446 164.848282,48.348225 
	C165.978195,49.318539 167.527832,50.512215 167.921616,52.009808 
	C168.460175,54.058128 168.119934,56.337528 168.319855,59.284023 
	C168.948166,62.463310 169.413040,64.876450 169.892151,67.713608 
	C170.005753,70.415009 170.105087,72.692383 170.204437,74.969765 
z"/>
<path fill="#0A5632" opacity="1.000000" stroke="none" 
	d="
M132.961578,48.994766 
	C134.548294,48.774738 136.135025,48.554710 138.022339,48.628967 
	C139.234329,52.623955 140.145721,56.324654 140.720032,60.178154 
	C136.572327,61.698376 134.309891,60.404140 133.756012,56.378166 
	C133.418762,53.926998 133.221649,51.456551 132.961578,48.994766 
z"/>
<path fill="#E2E9E5" opacity="1.000000" stroke="none" 
	d="
M132.349457,83.866440 
	C131.844131,83.053978 131.699432,82.269066 131.399384,80.935974 
	C131.522247,79.589584 131.800491,78.791382 132.376892,78.003296 
	C133.072662,78.019669 133.470276,78.025940 133.867889,78.032211 
	C134.058960,78.123978 134.250031,78.215736 134.722565,78.159607 
	C135.009979,78.407173 135.015945,78.802628 134.724014,79.789368 
	C135.570465,82.794708 135.986176,86.090401 140.022186,85.005646 
	C140.209045,85.008781 140.395905,85.011909 140.862335,85.035812 
	C143.161148,86.826202 145.180420,88.595818 147.199677,90.365433 
	C146.657501,91.082878 146.115326,91.800316 145.573151,92.517761 
	C141.285461,89.643173 136.997787,86.768578 132.349457,83.866440 
z"/>
<path fill="#EBEFED" opacity="1.000000" stroke="none" 
	d="
M132.855804,48.923824 
	C133.221649,51.456551 133.418762,53.926998 133.756012,56.378166 
	C134.309891,60.404140 136.572327,61.698376 140.919739,60.320534 
	C141.695282,60.538506 141.890701,60.799377 142.042740,61.092735 
	C141.517578,61.942501 140.992416,62.792267 139.837128,63.828812 
	C136.466812,62.659660 133.726608,61.303738 130.983368,59.660721 
	C130.962082,59.183094 130.943802,58.992561 130.925507,58.802025 
	C131.015671,54.970913 131.105820,51.139805 131.613113,47.489727 
	C132.302383,47.986240 132.574509,48.301716 132.846634,48.617195 
	C132.846634,48.617195 132.750046,48.852882 132.855804,48.923824 
z"/>
<path fill="#0B5027" opacity="1.000000" stroke="none" 
	d="
M169.877899,67.289597 
	C169.413040,64.876450 168.948166,62.463310 168.451630,59.626457 
	C170.433670,57.290009 172.447403,55.377270 174.658310,53.231506 
	C175.233261,58.363605 175.611038,63.728729 175.983856,69.549942 
	C175.978897,70.006035 175.490341,70.009010 175.246017,69.593994 
	C174.914825,67.345627 174.827957,65.512276 174.741074,63.678917 
	C174.311584,63.514702 173.882095,63.350487 173.452606,63.186272 
	C172.261047,64.554047 171.069473,65.921822 169.877899,67.289597 
z"/>
<path fill="#E2E9E5" opacity="1.000000" stroke="none" 
	d="
M91.993500,58.719219 
	C92.089615,59.036896 92.068916,59.686256 92.013611,61.024834 
	C89.955849,66.891754 86.065147,66.260750 81.940674,64.970612 
	C81.929359,65.003418 81.990685,65.035919 81.990685,65.035919 
	C81.870735,64.191170 81.750786,63.346416 81.413925,61.913651 
	C81.364647,59.899105 81.532288,58.472572 81.882233,56.836651 
	C82.359131,56.456299 82.653725,56.285332 82.948326,56.114372 
	C83.790009,58.133930 84.631699,60.153484 85.473381,62.173042 
	C87.607811,61.132328 89.742249,60.091614 91.993500,58.719219 
z"/>
<path fill="#E5EBE8" opacity="1.000000" stroke="none" 
	d="
M130.674744,58.782272 
	C130.943802,58.992561 130.962082,59.183094 130.974792,60.001030 
	C129.730179,61.794365 128.491104,62.960297 126.824127,64.090775 
	C125.251457,64.042137 124.106705,64.028946 122.961960,64.015762 
	C122.065216,62.257278 121.168472,60.498798 120.495514,58.427704 
	C120.719299,58.115093 121.093185,57.891987 121.093185,57.891987 
	C122.528664,60.154144 124.194359,61.962933 127.869339,60.881546 
	C128.766312,60.577461 128.952866,60.337521 129.041840,60.021706 
	C129.041840,60.021706 129.007950,59.993179 129.278381,59.960957 
	C129.691406,59.616707 129.834000,59.304684 129.976593,58.992661 
	C130.125732,58.915947 130.274857,58.839233 130.674744,58.782272 
z"/>
<path fill="#DFE7E3" opacity="1.000000" stroke="none" 
	d="
M142.313568,60.817581 
	C141.890701,60.799377 141.695282,60.538506 141.256805,60.167736 
	C140.145721,56.324654 139.234329,52.623955 138.417480,48.560028 
	C139.081009,48.098186 139.649979,47.999577 140.440948,48.010342 
	C141.303421,52.260624 141.943893,56.401527 142.313568,60.817581 
z"/>
<path fill="#125A37" opacity="1.000000" stroke="none" 
	d="
M202.983978,80.344391 
	C204.063202,80.036972 205.122162,80.092056 206.569000,80.045792 
	C205.580353,82.796082 204.203796,85.647720 202.827240,88.499359 
	C202.096466,88.203194 201.365692,87.907028 200.634918,87.610855 
	C201.411194,85.309540 202.187454,83.008217 202.983978,80.344391 
z"/>
<path fill="#E5EBE8" opacity="1.000000" stroke="none" 
	d="
M167.958878,82.111816 
	C166.886169,84.328552 165.813477,86.545288 164.390610,88.822922 
	C163.466873,88.548416 162.829041,87.852951 162.331177,87.941795 
	C160.473846,88.273224 158.662415,88.861870 156.025757,89.571472 
	C157.548874,87.805237 158.427048,86.786896 159.323181,85.386917 
	C159.341156,85.005295 159.519562,85.022308 159.762222,85.338806 
	C162.656204,84.474144 165.307541,83.292976 167.958878,82.111816 
z"/>
<path fill="#0A5632" opacity="1.000000" stroke="none" 
	d="
M123.404160,50.120689 
	C123.054100,49.868870 123.039619,49.692554 123.011154,49.251076 
	C123.802238,48.445263 124.761940,47.307663 125.385162,47.469090 
	C127.857376,48.109440 128.908325,52.558308 127.314613,55.669827 
	C126.072762,53.768387 124.906250,51.982288 123.404160,50.120689 
z"/>
<path fill="#EBEFED" opacity="1.000000" stroke="none" 
	d="
M185.698761,51.305336 
	C185.473740,52.312428 184.899094,53.462906 184.122986,54.885044 
	C182.257538,53.103481 180.593552,51.050255 178.929565,48.997032 
	C179.257538,48.625053 179.585495,48.253071 179.913452,47.881092 
	C181.725342,49.070305 183.537247,50.259514 185.698761,51.305336 
z"/>
<path fill="#EBEFED" opacity="1.000000" stroke="none" 
	d="
M195.710144,57.644966 
	C195.326462,58.012169 194.986908,58.010002 194.392670,58.006638 
	C194.074280,57.545010 194.010605,57.084576 193.982635,55.984863 
	C193.981628,55.154747 193.944885,54.963913 193.908157,54.773079 
	C194.029358,52.581699 194.150574,50.390316 194.658020,48.431717 
	C195.280930,51.534863 195.517609,54.405228 195.710144,57.644966 
z"/>
<path fill="#1F6241" opacity="1.000000" stroke="none" 
	d="
M94.652176,88.817368 
	C96.813202,89.119804 98.668831,89.537682 100.853500,89.987381 
	C99.367111,90.732735 97.584373,91.901421 95.727310,92.034706 
	C93.780434,92.174446 91.956642,91.237068 94.652176,88.817368 
z"/>
<path fill="#F2F5F3" opacity="1.000000" stroke="none" 
	d="
M196.088638,83.996025 
	C195.789932,80.563454 195.478134,77.131676 195.268921,73.693657 
	C195.263763,73.609001 196.396072,73.455132 197.115158,73.783646 
	C197.234924,74.897743 197.237396,75.561722 197.262833,76.898361 
	C197.281143,79.044395 197.276489,80.517769 197.271835,81.991142 
	C197.194229,82.438812 197.116638,82.886475 196.755585,83.665237 
	C196.472107,83.996338 196.088638,83.996025 196.088638,83.996025 
z"/>
<path fill="#DFE7E3" opacity="1.000000" stroke="none" 
	d="
M148.248383,49.421730 
	C149.057678,49.234787 149.830750,48.910210 150.603836,48.585629 
	C150.598984,49.032951 150.594131,49.480270 150.589279,49.927593 
	C149.796906,49.713093 149.004532,49.498596 148.248383,49.421730 
z"/>
<path fill="#0B5027" opacity="1.000000" stroke="none" 
	d="
M78.354454,67.980362 
	C78.354454,67.980362 78.409286,67.971748 78.774818,68.073502 
	C79.757843,68.546867 80.375336,68.918480 80.980743,69.604248 
	C80.357498,70.621956 79.746323,71.325500 79.052528,71.745598 
	C78.629112,71.637047 78.288322,71.811951 77.974503,71.995995 
	C78.001480,72.005142 77.995773,71.948921 77.654678,71.919945 
	C76.863495,71.918816 76.413414,71.946663 75.963326,71.974510 
	C75.963326,71.974510 76.003372,72.003975 76.003639,71.748596 
	C76.000191,71.310349 75.996483,71.127480 76.324142,70.863937 
	C77.221825,69.848953 77.788139,68.914658 78.354454,67.980362 
z"/>
<path fill="#BFCDC6" opacity="1.000000" stroke="none" 
	d="
M80.992828,69.290092 
	C80.375336,68.918480 79.757843,68.546867 78.785851,68.098969 
	C79.380539,67.019577 80.329735,66.016464 81.634811,65.024635 
	C81.990685,65.035919 81.929359,65.003418 82.050690,65.305740 
	C81.778954,66.835411 81.385895,68.062752 80.992828,69.290092 
z"/>
<path fill="#E9EEEB" opacity="1.000000" stroke="none" 
	d="
M78.087578,67.934952 
	C77.788139,68.914658 77.221825,69.848953 76.257103,70.608734 
	C75.548073,70.304909 75.237450,70.175606 74.926826,70.046295 
	C74.411652,69.447701 73.896484,68.849098 73.980858,68.014725 
	C74.770004,67.678368 74.959610,67.577797 75.149208,67.477226 
	C76.039703,67.614662 76.930206,67.752106 78.087578,67.934952 
z"/>
<path fill="#BFCDC6" opacity="1.000000" stroke="none" 
	d="
M79.919891,60.915794 
	C79.383102,61.784824 78.846313,62.653858 78.309525,63.522888 
	C77.946899,63.398880 77.584274,63.274872 77.221649,63.150864 
	C77.763802,61.318352 78.305954,59.485840 79.406769,57.439331 
	C80.249321,57.309010 80.533211,57.392696 80.625168,57.781570 
	C80.262123,59.029774 80.091003,59.972786 79.919891,60.915794 
z"/>
<path fill="#004719" opacity="1.000000" stroke="none" 
	d="
M193.996735,86.991104 
	C194.330795,88.086021 194.664856,89.180939 195.039703,90.633575 
	C194.618408,90.992393 194.156326,90.993492 193.332733,90.664703 
	C192.563019,89.867317 192.154800,89.399826 191.746597,88.932335 
	C191.746597,88.932335 191.383881,88.943932 191.184418,88.694290 
	C191.299484,88.230614 191.614014,88.016594 192.210556,87.775047 
	C192.993958,87.495384 193.495346,87.243248 193.996735,86.991104 
z"/>
<path fill="#125A37" opacity="1.000000" stroke="none" 
	d="
M207.183487,79.717010 
	C207.037231,77.613808 207.131256,75.252815 207.267700,72.450424 
	C207.348007,74.492424 207.385880,76.975822 207.183487,79.717010 
z"/>
<path fill="#125A37" opacity="1.000000" stroke="none" 
	d="
M197.495819,81.737701 
	C197.276489,80.517769 197.281143,79.044395 197.370392,77.214256 
	C197.543259,78.399742 197.631531,79.942001 197.495819,81.737701 
z"/>
<path fill="#1F6241" opacity="1.000000" stroke="none" 
	d="
M92.053726,86.732010 
	C92.657578,85.897049 93.472931,85.368973 94.570145,84.751022 
	C94.908737,85.521515 94.965454,86.381882 95.010765,87.676315 
	C94.087982,87.753220 93.176605,87.396065 92.053726,86.732010 
z"/>
<path fill="#004719" opacity="1.000000" stroke="none" 
	d="
M80.093506,61.139019 
	C80.091003,59.972786 80.262123,59.029774 80.783020,57.733448 
	C81.132812,57.380131 81.311417,57.101139 81.413940,57.125259 
	C81.516457,57.149380 81.699928,57.046040 81.699928,57.046040 
	C81.532288,58.472572 81.364647,59.899105 81.177551,61.690536 
	C80.861099,61.824368 80.564102,61.593304 80.093506,61.139019 
z"/>
<path fill="#44745B" opacity="1.000000" stroke="none" 
	d="
M75.216927,67.212723 
	C74.959610,67.577797 74.770004,67.678368 74.259415,67.803696 
	C74.641907,66.835518 75.345375,65.842598 76.048851,64.849670 
	C76.191872,64.895844 76.334892,64.942024 76.477921,64.988197 
	C76.080162,65.641541 75.682404,66.294876 75.216927,67.212723 
z"/>
<path fill="#D6DFDA" opacity="1.000000" stroke="none" 
	d="
M81.311417,57.101139 
	C81.311417,57.101139 81.132812,57.380131 80.974953,57.428253 
	C80.533211,57.392696 80.249321,57.309010 79.537537,57.107056 
	C79.867218,55.973637 80.624802,54.958492 81.674347,54.233337 
	C81.966309,54.523335 81.950569,54.902000 81.677597,55.083393 
	C81.373550,55.876904 81.342476,56.489021 81.311417,57.101139 
z"/>
<path fill="#BFCDC6" opacity="1.000000" stroke="none" 
	d="
M73.882072,83.027397 
	C73.704643,83.003761 73.527206,82.980118 73.083290,82.923584 
	C72.964981,80.741371 73.113152,78.592041 73.592834,76.227203 
	C73.924339,76.011696 73.958961,75.929482 73.956184,76.373886 
	C73.929634,78.887985 73.905853,80.957695 73.882072,83.027397 
z"/>
<path fill="#ECF1EF" opacity="1.000000" stroke="none" 
	d="
M191.928558,87.802574 
	C191.614014,88.016594 191.299484,88.230614 191.006638,88.730659 
	C190.347519,87.912613 189.666718,86.808556 188.929153,85.377426 
	C189.063080,85.041870 189.253754,85.033386 189.750275,85.294113 
	C190.360748,85.765564 190.665405,85.967789 191.073273,86.385269 
	C191.427185,87.001213 191.677872,87.401894 191.928558,87.802574 
z"/>
<path fill="#BFCDC6" opacity="1.000000" stroke="none" 
	d="
M76.020157,72.228386 
	C76.413414,71.946663 76.863495,71.918816 77.912148,72.247711 
	C77.352226,73.077469 76.193741,73.550476 74.951149,73.899246 
	C74.867043,73.775017 74.930122,73.481674 74.930122,73.481674 
	C75.312408,73.148537 75.694702,72.815399 76.020157,72.228386 
z"/>
<path fill="#EBEFED" opacity="1.000000" stroke="none" 
	d="
M188.031708,68.369583 
	C188.457428,67.995850 188.827469,67.995476 189.475037,67.992432 
	C189.824631,68.439476 189.896683,68.889183 189.911591,69.677750 
	C189.449081,70.266563 189.043716,70.516533 188.424072,70.873322 
	C188.131866,70.234406 188.053940,69.488670 188.031708,68.369583 
z"/>
<path fill="#819E8F" opacity="1.000000" stroke="none" 
	d="
M121.018478,57.605061 
	C121.093185,57.891987 120.719299,58.115093 120.506409,58.069695 
	C120.293510,58.024292 119.887428,57.985226 119.547882,57.710915 
	C119.105331,57.296501 119.002312,57.156395 118.899284,57.016285 
	C119.246315,56.703671 119.593346,56.391052 120.201904,56.157009 
	C120.623558,56.596436 120.783661,56.957283 121.018478,57.605061 
z"/>
<path fill="#9AB1A5" opacity="1.000000" stroke="none" 
	d="
M74.917801,70.321869 
	C75.237450,70.175606 75.548073,70.304909 75.925735,70.689423 
	C75.996483,71.127480 76.000191,71.310349 76.020218,71.767120 
	C75.334106,71.875343 74.631683,71.709671 73.929268,71.543991 
	C74.255768,71.228477 74.582275,70.912964 74.917801,70.321869 
z"/>
<path fill="#9AB1A5" opacity="1.000000" stroke="none" 
	d="
M81.950569,54.902000 
	C81.950569,54.902000 81.966309,54.523335 81.954895,54.334179 
	C82.547379,53.950848 83.151268,53.756676 83.755165,53.562500 
	C83.666138,53.974617 83.577110,54.386734 82.991287,54.930344 
	C82.313179,55.008556 82.131874,54.955276 81.950569,54.902000 
z"/>
<path fill="#EBEFED" opacity="1.000000" stroke="none" 
	d="
M196.030792,84.316422 
	C196.088638,83.996025 196.472107,83.996338 196.663849,83.995697 
	C197.111862,84.434853 197.368134,84.874649 197.748505,85.543701 
	C197.239395,85.394241 196.606155,85.015526 196.030792,84.316422 
z"/>
<path fill="#1F6241" opacity="1.000000" stroke="none" 
	d="
M81.677597,55.083393 
	C82.131874,54.955276 82.313179,55.008556 82.769524,55.131039 
	C83.044556,55.200237 83.024460,55.660244 82.986389,55.887306 
	C82.653725,56.285332 82.359131,56.456299 81.882233,56.836651 
	C81.699928,57.046040 81.516457,57.149380 81.413933,57.125259 
	C81.342476,56.489021 81.373550,55.876904 81.677597,55.083393 
z"/>
<path fill="#E5EBE8" opacity="1.000000" stroke="none" 
	d="
M205.080627,53.566730 
	C205.122375,53.458820 205.285446,53.154240 205.762360,52.437195 
	C205.784775,52.473171 205.493347,52.921616 205.080627,53.566730 
z"/>
<path fill="#EBEFED" opacity="1.000000" stroke="none" 
	d="
M187.724731,48.788120 
	C187.385345,49.012390 187.037872,49.012558 186.429810,49.010109 
	C186.685043,48.859661 187.200851,48.711838 187.724731,48.788120 
z"/>
<path fill="#EBEFED" opacity="1.000000" stroke="none" 
	d="
M188.620514,74.451492 
	C188.821136,74.903229 188.940308,75.625946 189.045807,76.627678 
	C188.867783,76.178619 188.703415,75.450546 188.620514,74.451492 
z"/>
<path fill="#D6DFDA" opacity="1.000000" stroke="none" 
	d="
M73.962341,76.035057 
	C74.121010,75.295502 74.241692,74.532578 74.646240,73.625671 
	C74.930122,73.481674 74.867043,73.775017 74.945953,74.215553 
	C74.949577,75.070450 74.874298,75.484802 74.588577,75.895691 
	C74.378120,75.892227 73.958961,75.929482 73.958961,75.929482 
	C73.958961,75.929482 73.924339,76.011696 73.962341,76.035057 
z"/>
<path fill="#125A37" opacity="1.000000" stroke="none" 
	d="
M201.042297,76.281258 
	C201.368423,76.431931 201.731598,76.883446 202.150848,77.628403 
	C201.831085,77.475250 201.455231,77.028671 201.042297,76.281258 
z"/>
<path fill="#819E8F" opacity="1.000000" stroke="none" 
	d="
M75.825317,53.970695 
	C75.570541,54.152405 75.302757,54.055275 75.034966,53.958145 
	C75.294083,53.869381 75.553192,53.780617 75.825317,53.970695 
z"/>
<path fill="#44745B" opacity="1.000000" stroke="none" 
	d="
M191.774567,89.253769 
	C192.154800,89.399826 192.563019,89.867317 192.987000,90.663376 
	C192.602692,90.519691 192.202606,90.047447 191.774567,89.253769 
z"/>
<path fill="#0A5632" opacity="1.000000" stroke="none" 
	d="
M128.842590,60.094643 
	C128.952866,60.337521 128.766312,60.577461 128.249557,60.736103 
	C128.179718,60.491768 128.388519,60.304070 128.842590,60.094643 
z"/>
<path fill="#125A37" opacity="1.000000" stroke="none" 
	d="
M207.271515,69.889854 
	C207.116501,69.828888 207.073257,69.656342 207.088806,69.223526 
	C207.440674,69.180817 207.519241,69.452484 207.271515,69.889854 
z"/>
<path fill="#DFE7E3" opacity="1.000000" stroke="none" 
	d="
M193.829926,54.912666 
	C193.944885,54.963913 193.981628,55.154747 194.022339,55.637039 
	C193.814148,55.682037 193.722610,55.389961 193.829926,54.912666 
z"/>
<path fill="#0A5632" opacity="1.000000" stroke="none" 
	d="
M132.763428,48.309456 
	C132.574509,48.301716 132.302383,47.986240 131.944916,47.361000 
	C132.133118,47.368069 132.406677,47.684891 132.763428,48.309456 
z"/>
<path fill="#0A5632" opacity="1.000000" stroke="none" 
	d="
M129.778946,59.129211 
	C129.834000,59.304684 129.691406,59.616707 129.283356,59.982403 
	C129.146484,59.735996 129.334290,59.479229 129.778946,59.129211 
z"/>
<path fill="#0D5732" opacity="1.000000" stroke="none" 
	d="
M74.799026,75.899162 
	C74.874298,75.484802 74.949577,75.070450 75.030060,74.339783 
	C76.193741,73.550476 77.352226,73.077469 78.253242,72.276688 
	C77.995773,71.948921 78.001480,72.005142 78.261642,72.281799 
	C78.726265,72.381989 78.930710,72.205521 79.135147,72.029045 
	C79.746323,71.325500 80.357498,70.621956 80.980743,69.604248 
	C81.385895,68.062752 81.778954,66.835411 82.062004,65.272942 
	C86.065147,66.260750 89.955849,66.891754 91.987518,61.348755 
	C95.469826,63.318012 98.099899,66.128853 97.811813,70.106239 
	C95.164566,69.498665 92.690369,68.930809 90.216179,68.362961 
	C89.889755,70.196877 89.563332,72.030792 89.757568,74.271988 
	C91.299942,75.460464 92.321640,76.241653 93.806053,77.376640 
	C91.143997,78.791313 89.086075,80.173965 86.827095,81.019333 
	C83.216202,82.370628 79.438866,83.526993 77.139145,78.812965 
	C76.521584,77.684402 75.660309,76.791786 74.799026,75.899162 
z"/>
<path fill="#E2E9E5" opacity="1.000000" stroke="none" 
	d="
M76.895416,79.048904 
	C79.438866,83.526993 83.216202,82.370628 86.827095,81.019333 
	C89.086075,80.173965 91.143997,78.791313 93.806053,77.376640 
	C92.321640,76.241653 91.299942,75.460464 90.097549,74.355820 
	C92.219521,73.880020 94.526917,73.586807 96.821861,73.664032 
	C97.481682,73.686241 98.105553,74.777039 98.230087,75.670334 
	C93.607468,78.823639 89.760384,82.212151 85.320984,84.397324 
	C80.861420,86.592422 76.839867,84.733994 75.453796,80.856247 
	C75.317291,80.474350 76.386070,79.661652 76.895416,79.048904 
z"/>
<path fill="#0B5027" opacity="1.000000" stroke="none" 
	d="
M77.139145,78.812965 
	C76.386070,79.661652 75.317291,80.474350 75.453796,80.856247 
	C76.839867,84.733994 80.861420,86.592422 85.320984,84.397324 
	C89.760384,82.212151 93.607468,78.823639 98.098114,75.954552 
	C98.431274,76.710594 98.380600,77.474838 98.283905,78.620377 
	C93.811195,81.538467 89.568970,84.514603 84.900208,86.474884 
	C81.073547,88.081612 76.992828,87.541870 74.029800,83.360863 
	C73.905853,80.957695 73.929634,78.887985 73.956184,76.373886 
	C73.958961,75.929482 74.378120,75.892227 74.588577,75.895691 
	C75.660309,76.791786 76.521584,77.684402 77.139145,78.812965 
z"/>
<path fill="#115832" opacity="1.000000" stroke="none" 
	d="
M98.064545,54.574074 
	C100.789070,54.366867 100.789070,54.366867 102.925056,60.409389 
	C102.399323,60.729992 101.813995,61.169220 101.162292,61.459377 
	C100.600250,61.709606 99.962654,61.790119 99.158142,61.997231 
	C98.771767,59.513958 98.417526,57.237267 98.064545,54.574074 
z"/>
<path fill="#1F6241" opacity="1.000000" stroke="none" 
	d="
M97.304932,83.005142 
	C97.960739,81.878891 98.985474,80.786316 100.013550,79.347260 
	C100.194313,78.917267 100.371727,78.833755 100.715813,78.507889 
	C101.646294,80.227325 102.410118,82.189133 103.173935,84.150940 
	C102.768616,84.364861 102.363297,84.578781 101.957977,84.792709 
	C100.529930,84.208084 99.101891,83.623459 97.304932,83.005142 
z"/>
<path fill="#D6DFDA" opacity="1.000000" stroke="none" 
	d="
M123.149971,64.423737 
	C124.106705,64.028946 125.251457,64.042137 126.738274,64.376633 
	C127.125145,65.090263 127.169960,65.482574 126.991074,66.043556 
	C126.569527,66.523933 126.371689,66.835648 126.260040,67.324753 
	C126.511421,67.720528 126.725052,67.869507 126.992119,68.174126 
	C126.997108,68.399185 126.962456,68.848091 126.817429,69.183319 
	C126.821442,70.638290 127.071556,71.755692 127.097580,72.878288 
	C127.145439,74.942307 127.061417,77.009384 127.032349,79.075188 
	C126.879951,78.790016 126.687958,78.534622 126.260529,78.169731 
	C125.711342,76.670906 125.290642,75.324684 125.018410,73.949074 
	C124.418526,70.917816 123.893539,67.871742 123.149971,64.423737 
z"/>
<path fill="#015430" opacity="1.000000" stroke="none" 
	d="
M118.608246,56.926849 
	C119.002312,57.156395 119.105331,57.296501 119.351250,57.656704 
	C117.858513,58.848595 116.222878,59.820389 114.428734,60.886353 
	C111.279060,57.979389 111.650665,56.174629 117.111122,51.622353 
	C117.544075,53.494419 117.930634,55.165916 118.608246,56.926849 
z"/>
<path fill="#015430" opacity="1.000000" stroke="none" 
	d="
M111.527435,61.853745 
	C111.844780,61.936577 112.040504,62.132229 112.236229,62.327877 
	C111.959419,62.207436 111.682617,62.086998 111.527435,61.853745 
z"/>
<path fill="#0A5632" opacity="1.000000" stroke="none" 
	d="
M127.214775,65.874893 
	C127.169960,65.482574 127.125145,65.090263 127.166191,64.412086 
	C128.491104,62.960297 129.730179,61.794365 130.977814,60.288124 
	C133.726608,61.303738 136.466812,62.659660 139.603088,64.036148 
	C139.662643,64.977165 139.326111,65.897636 138.523636,67.066803 
	C137.458374,67.229698 136.859085,67.143883 135.993408,67.240608 
	C135.489563,68.225586 135.252060,69.028038 134.683075,69.899933 
	C133.121078,69.196625 131.890594,68.423866 130.533783,67.370003 
	C129.343216,66.684227 128.278992,66.279564 127.214775,65.874893 
z"/>
<path fill="#F2F5F3" opacity="1.000000" stroke="none" 
	d="
M130.660110,67.651108 
	C131.890594,68.423866 133.121078,69.196625 135.009277,69.986069 
	C136.098999,69.959152 136.531021,69.915558 136.934937,70.157784 
	C136.940186,70.632141 136.973511,70.820686 137.006836,71.009239 
	C132.952789,71.598427 132.525894,74.010757 133.856262,77.666351 
	C133.470276,78.025940 133.072662,78.019669 132.227203,77.662308 
	C130.820953,74.605278 129.862518,71.899330 129.147552,68.883980 
	C129.814056,68.266754 130.237076,67.958931 130.660110,67.651108 
z"/>
<path fill="#BFCDC6" opacity="1.000000" stroke="none" 
	d="
M137.303650,71.048965 
	C136.973511,70.820686 136.940186,70.632141 136.903564,69.865387 
	C136.686768,68.544136 136.473267,67.801102 136.259781,67.058075 
	C136.859085,67.143883 137.458374,67.229698 138.351227,67.395294 
	C138.773804,68.186798 138.902817,68.898514 139.424362,69.684776 
	C139.816910,69.759323 140.133423,70.114189 140.133423,70.114189 
	C139.289108,70.439026 138.444778,70.763863 137.303650,71.048965 
z"/>
<path fill="#BFCDC6" opacity="1.000000" stroke="none" 
	d="
M139.673141,69.569969 
	C139.805725,69.545494 140.082077,69.710365 140.245926,69.994720 
	C140.133423,70.114189 139.816910,69.759323 139.673141,69.569969 
z"/>
<path fill="#1F6241" opacity="1.000000" stroke="none" 
	d="
M104.159882,74.914391 
	C104.226540,76.102951 104.020973,77.335663 103.815399,78.568375 
	C103.430000,78.452179 103.044594,78.335983 102.659187,78.219788 
	C103.068672,77.132706 103.478165,76.045624 104.159882,74.914391 
z"/>
<path fill="#0D542D" opacity="1.000000" stroke="none" 
	d="
M167.969360,81.868378 
	C165.307541,83.292976 162.656204,84.474144 159.851395,85.329979 
	C159.977020,80.181877 160.256149,75.359093 160.561661,70.080177 
	C162.440292,72.401817 164.331741,74.739296 166.496887,77.294586 
	C167.000107,78.591759 167.229645,79.671120 167.731354,80.944328 
	C168.003555,81.138176 167.979828,81.624939 167.969360,81.868378 
z"/>
<path fill="#0B5027" opacity="1.000000" stroke="none" 
	d="
M140.076172,84.644241 
	C135.986176,86.090401 135.570465,82.794708 134.694183,80.084869 
	C138.082336,79.789093 141.202423,79.789093 144.835861,79.789093 
	C143.000397,81.541878 141.565277,82.912361 140.076172,84.644241 
z"/>
<path fill="#9AB1A5" opacity="1.000000" stroke="none" 
	d="
M190.619141,83.652336 
	C191.490402,83.669388 192.193222,83.873497 192.577072,84.515289 
	C191.800568,84.875931 191.343063,84.798897 190.885544,84.721863 
	C190.646210,84.474342 190.501266,84.180183 190.619141,83.652336 
z"/>
<path fill="#004719" opacity="1.000000" stroke="none" 
	d="
M190.666138,84.786194 
	C191.343063,84.798897 191.800568,84.875931 192.602966,84.877586 
	C192.961807,84.973206 192.975754,85.144211 192.653809,85.645294 
	C191.868622,86.040253 191.419342,86.105133 190.970047,86.170013 
	C190.665405,85.967789 190.360748,85.765564 190.036423,85.284813 
	C190.016754,85.006287 190.446716,84.850533 190.666138,84.786194 
z"/>
<path fill="#0B5027" opacity="1.000000" stroke="none" 
	d="
M176.341949,78.904823 
	C176.146927,78.173973 176.294571,77.337318 176.655807,76.259651 
	C176.807816,76.945427 176.746216,77.872231 176.341949,78.904823 
z"/>
<path fill="#015430" opacity="1.000000" stroke="none" 
	d="
M202.238678,50.099777 
	C202.938797,52.757336 203.318924,55.497910 203.744629,58.674568 
	C203.745422,59.414932 203.829651,59.667877 204.042908,59.869488 
	C204.012482,60.057781 203.982056,60.246075 203.896545,60.714973 
	C200.677719,62.709431 199.452072,59.418755 197.756470,58.161640 
	C197.016159,57.612789 197.675751,54.475773 198.426727,52.849972 
	C198.969864,51.674129 200.711517,51.051910 202.238678,50.099777 
z"/>
<path fill="#015430" opacity="1.000000" stroke="none" 
	d="
M169.892151,67.713608 
	C171.069473,65.921822 172.261047,64.554047 173.452606,63.186272 
	C173.882095,63.350487 174.311584,63.514702 174.741074,63.678917 
	C174.827957,65.512276 174.914825,67.345627 175.001770,69.591408 
	C174.062820,70.446587 173.123810,70.889343 171.881500,71.852333 
	C171.393997,72.924644 171.209778,73.476715 171.025558,74.028786 
	C170.911179,74.290764 170.750000,74.519806 170.373230,74.842834 
	C170.105087,72.692383 170.005753,70.415009 169.892151,67.713608 
z"/>
<path fill="#0B5027" opacity="1.000000" stroke="none" 
	d="
M171.335434,74.031151 
	C171.209778,73.476715 171.393997,72.924644 171.801910,72.177246 
	C172.339386,72.450172 172.653168,72.918419 172.972183,73.701660 
	C172.977432,74.016655 172.884811,74.079086 172.884811,74.079086 
	C172.471649,74.063896 172.058472,74.048706 171.335434,74.031151 
z"/>
<path fill="#0B5027" opacity="1.000000" stroke="none" 
	d="
M173.023911,73.985687 
	C173.233871,74.380379 173.397369,74.806030 173.560852,75.231689 
	C173.300659,75.297028 173.040466,75.362366 172.780273,75.427704 
	C172.776260,75.119469 172.772232,74.811226 172.826508,74.291039 
	C172.884811,74.079086 172.977432,74.016655 173.023911,73.985687 
z"/>
<path fill="#BFCDC6" opacity="1.000000" stroke="none" 
	d="
M191.073273,86.385269 
	C191.419342,86.105133 191.868622,86.040253 192.651428,85.902634 
	C193.329758,86.016159 193.674561,86.202431 194.008057,86.689911 
	C193.495346,87.243248 192.993958,87.495384 192.210556,87.775047 
	C191.677872,87.401894 191.427185,87.001213 191.073273,86.385269 
z"/>
<path fill="#0D5732" opacity="1.000000" stroke="none" 
	d="
M128.904099,69.193390 
	C129.862518,71.899330 130.820953,74.605278 131.929047,77.652199 
	C131.800491,78.791382 131.522247,79.589584 131.194046,80.713158 
	C126.615746,84.122139 122.711647,88.753113 114.927338,87.426132 
	C119.624268,84.387726 123.225876,82.057861 126.929916,79.401596 
	C127.061417,77.009384 127.145439,74.942307 127.097580,72.878288 
	C127.071556,71.755692 126.821442,70.638290 127.148232,69.195595 
	C128.050751,68.979561 128.477417,69.086472 128.904099,69.193390 
z"/>
<path fill="#E5EBE8" opacity="1.000000" stroke="none" 
	d="
M204.032288,59.620804 
	C203.829651,59.667877 203.745422,59.414932 203.871155,58.994923 
	C203.952103,58.879192 204.021683,59.372124 204.032288,59.620804 
z"/>
<path fill="#BFCDC6" opacity="1.000000" stroke="none" 
	d="
M79.052528,71.745598 
	C78.930710,72.205521 78.726265,72.381989 78.234673,72.272659 
	C78.288322,71.811951 78.629112,71.637047 79.052528,71.745598 
z"/>
<path fill="#E2E9E5" opacity="1.000000" stroke="none" 
	d="
M129.147552,68.883980 
	C128.477417,69.086472 128.050751,68.979561 127.293259,68.860367 
	C126.962456,68.848091 126.997108,68.399185 126.900864,67.998596 
	C126.649887,67.370071 126.439629,67.219856 126.173843,67.147354 
	C126.371689,66.835648 126.569527,66.523933 126.991074,66.043556 
	C128.278992,66.279564 129.343216,66.684227 130.533783,67.370003 
	C130.237076,67.958931 129.814056,68.266754 129.147552,68.883980 
z"/>
<path fill="#F2F5F3" opacity="1.000000" stroke="none" 
	d="
M126.260048,67.324753 
	C126.439629,67.219856 126.649887,67.370071 126.895874,67.773537 
	C126.725052,67.869507 126.511421,67.720528 126.260048,67.324753 
z"/>
<path fill="#004719" opacity="1.000000" stroke="none" 
	d="
M135.993408,67.240601 
	C136.473267,67.801102 136.686768,68.544136 136.931641,69.579559 
	C136.531021,69.915558 136.098999,69.959152 135.340790,69.916611 
	C135.252060,69.028038 135.489563,68.225586 135.993408,67.240601 
z"/>
</svg>