<?xml version="1.0" encoding="UTF-8"?>
<svg version="1.1" xmlns="http://www.w3.org/2000/svg" width="32" height="24">
<path d="M0 0 C4.39656173 -0.02465504 8.7930872 -0.04283842 13.18969727 -0.05493164 C14.68644918 -0.05997121 16.18319616 -0.06680287 17.67993164 -0.07543945 C19.82699807 -0.08752159 21.97399962 -0.09323191 24.12109375 -0.09765625 C26.06133423 -0.10551147 26.06133423 -0.10551147 28.04077148 -0.11352539 C31 0 31 0 32 1 C32.04092937 3.33297433 32.04241723 5.66705225 32 8 C29.03 7.67 26.06 7.34 23 7 C23.04125 8.32 23.0825 9.64 23.125 11 C23.1397254 15.64586342 22.29444431 19.55034767 21 24 C17.7 24 14.4 24 11 24 C10.51171875 22.01432292 10.0234375 20.02864583 9.53515625 18.04296875 C9.08989295 16.34316798 8.55566015 14.66698046 8 13 C8.27571139 10.99124558 8.60235737 8.98821313 9 7 C4.545 7.495 4.545 7.495 0 8 C0 5.36 0 2.72 0 0 Z M13 17 C13 17.33 13 17.66 13 18 C14.98 18 16.96 18 19 18 C19 17.67 19 17.34 19 17 C17.02 17 15.04 17 13 17 Z " fill="#87693F" transform="translate(0,0)"/>
<path d="M0 0 C6.6 0.33 13.2 0.66 20 1 C20 2.65 20 4.3 20 6 C18 8 18 8 16 8.375 C13.79734983 8.82123176 13.79734983 8.82123176 12.75 11.0625 C12.5025 11.701875 12.255 12.34125 12 13 C11.01 12.67 10.02 12.34 9 12 C9 10.35 9 8.7 9 7 C4.545 7.495 4.545 7.495 0 8 C0 5.36 0 2.72 0 0 Z " fill="#B09C69" transform="translate(0,0)"/>
<path d="M0 0 C0 2.31 0 4.62 0 7 C-2.97 6.67 -5.94 6.34 -9 6 C-9 6.99 -9 7.98 -9 9 C-9.66 9 -10.32 9 -11 9 C-11.33 9.66 -11.66 10.32 -12 11 C-14.31 10.67 -16.62 10.34 -19 10 C-18 7 -18 7 -15.5 5.5625 C-12.84127915 4.25447976 -12.84127915 4.25447976 -12.1875 1.8125 C-12.125625 1.214375 -12.06375 0.61625 -12 0 C-7.6835078 -0.76173392 -4.25566547 -1.16063604 0 0 Z " fill="#C7B176" transform="translate(32,1)"/>
<path d="M0 0 C2.05078125 0.03255208 4.1015625 0.06510417 6.15234375 0.09765625 C6.27734375 2.47265625 6.27734375 2.47265625 6.15234375 5.09765625 C4.15234375 7.09765625 4.15234375 7.09765625 2.15234375 7.47265625 C-0.05030642 7.91888801 -0.05030642 7.91888801 -1.09765625 10.16015625 C-1.34515625 10.79953125 -1.59265625 11.43890625 -1.84765625 12.09765625 C-2.83765625 11.76765625 -3.82765625 11.43765625 -4.84765625 11.09765625 C-4.84765625 9.44765625 -4.84765625 7.79765625 -4.84765625 6.09765625 C-3.85765625 6.09765625 -2.86765625 6.09765625 -1.84765625 6.09765625 C-1.51765625 5.76765625 -1.18765625 5.43765625 -0.84765625 5.09765625 C-1.83765625 4.43765625 -2.82765625 3.77765625 -3.84765625 3.09765625 C-2.36122845 0.12480066 -2.36122845 0.12480066 0 0 Z " fill="#C8B282" transform="translate(13.84765625,0.90234375)"/>
<path d="M0 0 C1.37478516 0.01740234 1.37478516 0.01740234 2.77734375 0.03515625 C3.69644531 0.04417969 4.61554687 0.05320312 5.5625 0.0625 C6.27277344 0.07410156 6.98304687 0.08570312 7.71484375 0.09765625 C7.71484375 2.07765625 7.71484375 4.05765625 7.71484375 6.09765625 C4.41484375 6.09765625 1.11484375 6.09765625 -2.28515625 6.09765625 C-2.66734392 4.44150968 -2.99910727 2.77308601 -3.28515625 1.09765625 C-2.28515625 0.09765625 -2.28515625 0.09765625 0 0 Z " fill="#BBA66F" transform="translate(13.28515625,17.90234375)"/>
<path d="M0 0 C0.33 0.66 0.66 1.32 1 2 C1.99 2.33 2.98 2.66 4 3 C3.01 3 2.02 3 1 3 C1 3.66 1 4.32 1 5 C1.66 5.33 2.32 5.66 3 6 C3 6.99 3 7.98 3 9 C2.34 9 1.68 9 1 9 C0.67 9.66 0.34 10.32 0 11 C-2.31 10.67 -4.62 10.34 -7 10 C-6 7 -6 7 -3.5 5.5625 C-0.84127915 4.25447976 -0.84127915 4.25447976 -0.1875 1.8125 C-0.125625 1.214375 -0.06375 0.61625 0 0 Z " fill="#A68C5F" transform="translate(20,1)"/>
<path d="M0 0 C1.67542976 0.28604898 3.34385343 0.61781233 5 1 C4.67 2.65 4.34 4.3 4 6 C3.01 6 2.02 6 1 6 C0.34 4.35 -0.32 2.7 -1 1 C-0.67 0.67 -0.34 0.34 0 0 Z " fill="#907247" transform="translate(9,12)"/>
<path d="M0 0 C1.2065625 0.0309375 1.2065625 0.0309375 2.4375 0.0625 C2.4375 1.3825 2.4375 2.7025 2.4375 4.0625 C0.625 4.6875 0.625 4.6875 -1.5625 5.0625 C-2.5525 4.4025 -3.5425 3.7425 -4.5625 3.0625 C-3.06867284 0.07484568 -3.06867284 0.07484568 0 0 Z " fill="#D7BF7F" transform="translate(14.5625,0.9375)"/>
<path d="M0 0 C2.125 0.9375 2.125 0.9375 4 2 C3.34 3.65 2.68 5.3 2 7 C1.01 7 0.02 7 -1 7 C-1.33 5.02 -1.66 3.04 -2 1 C-1.34 0.67 -0.68 0.34 0 0 Z " fill="#6E5334" transform="translate(15,10)"/>
<path d="M0 0 C1.67542976 0.28604898 3.34385343 0.61781233 5 1 C5 3.31 5 5.62 5 8 C3.35 8 1.7 8 0 8 C1.32 7.67 2.64 7.34 4 7 C2.63016497 3.83884224 2.0109362 3.0072908 -1 1 C-0.67 0.67 -0.34 0.34 0 0 Z " fill="#7D6F4A" transform="translate(27,0)"/>
<path d="M0 0 C0 1.98 0 3.96 0 6 C-0.99 6 -1.98 6 -3 6 C-3.66 4.35 -4.32 2.7 -5 1 C-2 0 -2 0 0 0 Z " fill="#98784A" transform="translate(23,10)"/>
</svg>
